# Exported from ProBuilder
# http://www.procore3d.com/probuilder
# 11/2/2018 10:38:57 AM

mtllib ./New_Game_Object.mtl
o New Game Object

g New Game Object
v -3 -26 -1.490116E-08
v -3 -33 -1.192094E-07
v -7 -33 -1.192094E-07
v -7 -26 -1.490116E-08
v -7 -26 -1
v -3 -26 -1
v -3 -33 -1
v -7 -33 -1
v -7 -33 -1.192094E-07
v -3 -33 -1.192094E-07
v -7 -33 -1
v -3 -33 -1
v -7 -26 -1.490116E-08
v -7 -33 -1.192094E-07
v -7 -26 -1
v -7 -33 -1
v -3 -33 -1.192094E-07
v -3 -26 -1.490116E-08
v -3 -33 -1
v -3 -26 -1
v -3 -26 -1.490116E-08
v -7 -26 -1.490116E-08
v -3 -26 -1
v -7 -26 -1

vn 0 -1.490118E-08 1
vn 0 -1.490118E-08 1
vn 0 -1.490118E-08 1
vn 0 -1.490118E-08 1
vn 0 1.702992E-08 -1
vn 0 1.702992E-08 -1
vn 0 1.702992E-08 -1
vn 0 1.702992E-08 -1
vn 0 -1 1.192093E-07
vn 0 -1 1.192093E-07
vn 0 -1 1.192093E-07
vn 0 -1 1.192093E-07
vn -1 0 0
vn -1 0 0
vn -1 0 0
vn -1 0 0
vn 1 0 0
vn 1 0 0
vn 1 0 0
vn 1 0 0
vn 0 1 1.490118E-08
vn 0 1 1.490118E-08
vn 0 1 1.490118E-08
vn 0 1 1.490118E-08

vt 0 -1.998401E-15
vt 0 -7
vt -4 -7
vt -4 -1.998401E-15
vt 4 -2.128743E-09
vt 0 -2.128743E-09
vt 0 -7
vt 4 -7
vt 4 9.536743E-07
vt 0 9.536743E-07
vt 4 1.000001
vt 0 1.000001
vt 0 1.490116E-08
vt -7 9.536743E-07
vt 1.341105E-07 1
vt -7 1.000001
vt 7 9.536743E-07
vt 0 1.490116E-08
vt 7 1.000001
vt -1.341105E-07 1
vt 0 1.490116E-08
vt -4 1.490116E-08
vt 0 1
vt -4 1

g New Game Object
usemtl Default_Prototype
f 3/3/3 2/2/2 1/1/1 4/4/4
f 5/5/5 6/6/6 7/7/7 8/8/8
f 11/11/11 12/12/12 10/10/10 9/9/9
f 15/15/15 16/16/16 14/14/14 13/13/13
f 19/19/19 20/20/20 18/18/18 17/17/17
f 23/23/23 24/24/24 22/22/22 21/21/21

